<svg version="1.1" id="Capa_1" xmlns="http://www.w3.org/2000/svg" x="0" y="0" width="31.002" height="31.001" xml:space="preserve"><path d="M30.988 3.229A3.58 3.58 0 0027.409 0C19.473 0 11.538 0 3.602.002a3.41 3.41 0 00-.648.057C1.196.395.002 1.849.002 3.638v11.868c0 3.948 0 7.896.002 11.844 0 .201.015.403.04.604.23 1.717 1.755 3.048 3.49 3.049l23.938-.001c.137 0 .272-.008.409-.023 1.753-.206 3.116-1.737 3.116-3.502.003-7.981.003-15.961.001-23.941.002-.104.004-.205-.01-.307zM15.501 9.542a5.959 5.959 0 015.964 5.958 5.952 5.952 0 01-5.954 5.964 5.958 5.958 0 01-5.968-5.968 5.963 5.963 0 015.958-5.954zm11.931 3.739v12.847c0 .806-.49 1.301-1.297 1.301H4.836c-.747-.001-1.254-.509-1.254-1.255V13.129h2.69c-.602 2.429-.326 4.753.863 6.951.869 1.604 2.115 2.851 3.704 3.748a9.52 9.52 0 0010.03-.438 9.388 9.388 0 003.561-4.521c.707-1.875.799-3.789.305-5.744h2.695c.002.053.002.104.002.156zm0-4.96c-.002.705-.521 1.219-1.229 1.22h-1.754c-.588 0-1.178.001-1.768-.001-.679 0-1.207-.507-1.211-1.186-.008-1.195-.008-2.39 0-3.583.004-.687.53-1.19 1.221-1.191h3.523a1.19 1.19 0 011.219 1.218c.001 1.176.001 2.349-.001 3.523z"/></svg>