<svg height="1024" id="Layer_1" version="1.1" width="1024" xml:space="preserve" xmlns="http://www.w3.org/2000/svg"><g clip-rule="evenodd" fill-rule="evenodd"><path d="M512.305.122c70.856 0 141.717-.328 212.571.094 66.662.398 129.269 15.6 183.515 56.125 70.84 52.923 107.091 125.214 113.838 212.445 2.376 30.7 1.637 61.667 1.677 92.512.161 119.619.072 239.239.059 358.86-.005 48.856-6.799 96.557-27.473 141.232-41.938 90.623-115.091 140.165-211.608 157.334-20.125 3.579-40.886 4.916-61.359 4.977-141.333.417-282.669.321-424.003.174-73.495-.075-140.713-19.483-197.994-67.166-58.197-48.439-88.907-111.793-98.46-186.071C1.42 757.827.411 744.833.399 731.924.261 583.352-.636 434.771.82 286.214c.796-81.166 27.822-153.13 88.244-209.835 50.119-47.032 111.04-71.607 178.739-74.012 81.404-2.892 162.991-.685 244.499-.685.001-.521.001-1.041.003-1.56zm-.8 929.247c68.18 0 136.358.274 204.534-.188 17.83-.121 35.919-1.007 53.414-4.171 66.827-12.081 117.634-45.6 144.26-110.67 13.528-33.055 17.946-68.524 18.522-102.876 2.237-133.271.976-266.602.819-399.911-.018-14.442-.174-29.045-2.217-43.295-9.163-63.988-36.903-116.435-95.792-148.329-32.869-17.801-68.551-24.522-105.64-24.534-142.831-.042-285.662-.084-428.492.087-12.908.016-25.93.73-38.702 2.525-72.746 10.214-126.329 46.066-153.145 116.6-10.822 28.463-14.28 58.288-14.286 88.569-.021 139.403-.155 278.803.183 418.208.041 17.055 1.313 34.355 4.366 51.114 13.543 74.355 55.004 125.461 128.843 146.011 24.606 6.845 50.909 9.868 76.522 10.384 68.914 1.384 137.871.471 206.811.476z"/><path d="M775.903 510.369c-.064 145.777-119.005 264.347-264.821 263.991-145.871-.353-263.345-118.096-263.43-264.029-.085-145.771 118.679-264.351 264.603-264.192 144.666.156 263.713 119.466 263.648 264.23zM511.878 679.188c93.007.071 169.609-76.475 169.448-169.325-.161-92.206-76.568-168.757-168.818-169.132-92.873-.377-169.438 75.935-169.635 169.074-.196 93.272 75.669 169.309 169.005 169.383zm273.815-379.85c-33.019-.295-59.047-26.717-58.941-59.832.104-33.491 26.785-59.75 60.471-59.52 32.644.226 59.246 27.168 59.147 59.904-.1 33.2-27.196 59.747-60.677 59.448z"/></g></svg>