<svg width="1840" height="833" xmlns="http://www.w3.org/2000/svg" xmlns:xlink="http://www.w3.org/1999/xlink"><defs><linearGradient x1="0%" y1="50%" x2="100%" y2="50%" id="linearGradient-3"><stop stop-color="#373737" offset="0%"/><stop stop-color="#494949" offset="100%"/></linearGradient><linearGradient x1="50%" y1="100%" x2="50%" y2="0%" id="linearGradient-4"><stop stop-color="#393939" offset="0%"/><stop stop-color="#303030" offset="100%"/></linearGradient><linearGradient x1="50%" y1="0%" x2="50%" y2="100%" id="linearGradient-5"><stop stop-color="#565656" offset="0%"/><stop stop-color="#7A7A7A" offset="100%"/></linearGradient><path id="path-1" d="M0 0h1840v833H0z"/></defs><g id="Illustrations-Dark-V2" stroke="none" stroke-width="1" fill="none" fill-rule="evenodd"><g id="portfolio-1---wide"><mask id="mask-2" fill="#fff"><use xlink:href="#path-1"/></mask><use id="Shape" fill="#000" xlink:href="#path-1"/><path d="M-841.348 833c276.698 0 427.956-421 715.073-421 287.117 0 467.22 421 718.832 421H-841.348z" id="Shape" fill="url(#linearGradient-3)" opacity=".52" mask="url(#mask-2)"/><path d="M1235.652 421c276.698 0 427.956-421 715.073-421 287.117 0 467.22 421 718.832 421H1235.652z" id="Shape" fill="url(#linearGradient-3)" opacity=".52" mask="url(#mask-2)" transform="matrix(1 0 0 -1 0 421)"/><rect id="Shape" fill="url(#linearGradient-4)" mask="url(#mask-2)" x="865" y="239" width="500" height="895" rx="6.8"/><rect id="Shape" fill="url(#linearGradient-5)" opacity=".8" mask="url(#mask-2)" x="475" y="119" width="500" height="895" rx="6.8"/></g></g></svg>